<svg xmlns="http://www.w3.org/2000/svg" xmlns:xlink="http://www.w3.org/1999/xlink" height="65" viewBox="0 0 34 65" width="34"><svg height="27" viewBox="0 0 24 27" width="24" x="4" y="4"><path d="M24 13.5L0.749999 26.9234L0.75 0.0766048L24 13.5Z" fill="#fff"/></svg><svg height="26" viewBox="0 0 26 26" width="26" x="4" y="35"><g clip-path="url(#clip0)"><path d="M0.297882 12.2811C0.298187 12.2808 0.298441 12.2804 0.298798 12.2801L5.60564 6.99887C6.00321 6.60323 6.64625 6.60471 7.04199 7.00232C7.43768 7.39989 7.43615 8.04293 7.03859 8.43862L3.47557 11.9844H24.9844C25.5453 11.9844 26 12.4391 26 13C26 13.5609 25.5453 14.0156 24.9844 14.0156H3.47562L7.03854 17.5614C7.4361 17.9571 7.43762 18.6001 7.04194 18.9977C6.6462 19.3953 6.00311 19.3967 5.60559 19.0011L0.298746 13.7199C0.298441 13.7196 0.298187 13.7192 0.297832 13.7189C-0.0999374 13.3219 -0.0986691 12.6768 0.297882 12.2811Z" fill="#fff"/></g><defs><clipPath id="clip0"><path fill="#fff" transform="matrix(-1 0 0 1 26 0)" d="M0 0H26V26H0z"/></clipPath></defs></svg></svg>